<svg xmlns="http://www.w3.org/2000/svg" viewBox="0 0 1000 1000">
<title>Brickmen brickmen_giant_v0 side generation guide</title>
<desc>Source-image-free structural generation guide. Not manufacturing geometry.</desc>
<style>
.bg{fill:#111}
.axis{stroke:#555;stroke-width:1;stroke-dasharray:5 5}
.bone{stroke:#ddd;stroke-width:4;stroke-linecap:round}
.node{fill:#fff;stroke:#111;stroke-width:2}
.envelope{fill:#4cc9f0;fill-opacity:.13;stroke:#4cc9f0;stroke-width:2}
.link-envelope{stroke:#4cc9f0;stroke-opacity:.35;stroke-linecap:round;fill:none}
.keepout{fill:#ff6b6b;fill-opacity:.12;stroke:#ff6b6b;stroke-width:2;stroke-dasharray:8 5}
.sweep{fill:#f9c74f;fill-opacity:.07;stroke:#f9c74f;stroke-width:2;stroke-dasharray:4 5}
.label{font-family:monospace;font-size:16px;fill:#fff;paint-order:stroke;stroke:#111;stroke-width:4}
.meta{font-family:monospace;font-size:15px;fill:#bbb}
</style>
<rect class="bg" x="0" y="0" width="1000" height="1000"/>
<line class="axis" x1="500" y1="70.0" x2="500" y2="930.0"/>
<line class="axis" x1="70.0" y1="721.1117" x2="930.0" y2="721.1117"/>
<rect class="sweep" data-joint="neck" x="345.5874" y="129.3103" width="308.8252" height="230.5427"/>
<rect class="sweep" data-joint="shoulder_l" x="149.4496" y="215.7325" width="701.1008" height="401.7351"/>
<rect class="sweep" data-joint="shoulder_r" x="149.4496" y="215.7325" width="701.1008" height="401.7351"/>
<rect class="sweep" data-joint="wrist_l" x="369.3162" y="368.206" width="261.3677" height="250.4605"/>
<rect class="sweep" data-joint="wrist_r" x="369.3162" y="368.206" width="261.3677" height="250.4605"/>
<rect class="sweep" data-joint="lower_body" x="299.6317" y="359.7426" width="400.7365" height="352.1037"/>
<rect class="keepout" data-profile="lego_giant_43093_shoulder_reference_v0" data-anchor="shoulder_l" x="463.3927" y="328.4442" width="73.2145" height="54.6558"/>
<rect class="keepout" data-profile="lego_giant_43093_shoulder_reference_v0" data-anchor="shoulder_r" x="463.3927" y="328.4442" width="73.2145" height="54.6558"/>
<rect class="envelope" data-envelope="torso" data-slot="torso_shell" x="352.0025" y="308.119" width="295.995" height="180.0224"/>
<text class="label" data-envelope-label="torso" x="506" y="392.1303">torso_shell</text>
<ellipse class="envelope" data-envelope="head" data-slot="head_shell" cx="500" cy="244.5817" rx="105.1121" ry="52.9478"/>
<text class="label" data-envelope-label="head" x="506" y="238.5817">head_shell</text>
<rect class="envelope" data-envelope="abdomen" data-slot="torso_shell" x="379.2284" y="466.9624" width="241.5433" height="84.7164"/>
<text class="label" data-envelope-label="abdomen" x="506" y="503.3206">torso_shell</text>
<line class="link-envelope" data-envelope="arm_l" data-slot="arm_l_shell" x1="500" y1="355.772" x2="500" y2="493.4362" stroke-width="198.4561"/>
<text class="label" data-envelope-label="arm_l" x="506" y="418.6041">arm_l_shell</text>
<line class="link-envelope" data-envelope="arm_r" data-slot="arm_r_shell" x1="500" y1="355.772" x2="500" y2="493.4362" stroke-width="198.4561"/>
<text class="label" data-envelope-label="arm_r" x="506" y="418.6041">arm_r_shell</text>
<ellipse class="envelope" data-envelope="hand_l" data-slot="hand_l_shell" cx="500" cy="519.9101" rx="87.9965" ry="55.4408"/>
<text class="label" data-envelope-label="hand_l" x="506" y="513.9101">hand_l_shell</text>
<ellipse class="envelope" data-envelope="hand_r" data-slot="hand_r_shell" cx="500" cy="519.9101" rx="87.9965" ry="55.4408"/>
<text class="label" data-envelope-label="hand_r" x="506" y="513.9101">hand_r_shell</text>
<line class="link-envelope" data-envelope="lower_body" data-slot="lower_body_shell" x1="500" y1="721.1117" x2="500" y2="509.3206" stroke-width="400.7365"/>
<text class="label" data-envelope-label="lower_body" x="506" y="609.2161">lower_body_shell</text>
<line class="bone" data-bone="spine_lower" x1="500" y1="562.2683" x2="500" y2="509.3206"/>
<line class="bone" data-bone="spine_upper" x1="500" y1="509.3206" x2="500" y2="302.8243"/>
<line class="bone" data-bone="neck_head" x1="500" y1="302.8243" x2="500" y2="244.5817"/>
<line class="bone" data-bone="clavicle_l" x1="500" y1="398.1303" x2="500" y2="355.772"/>
<line class="bone" data-bone="upper_arm_l" x1="500" y1="355.772" x2="500" y2="429.8989"/>
<line class="bone" data-bone="forearm_l" x1="500" y1="429.8989" x2="500" y2="493.4362"/>
<line class="bone" data-bone="hand_link_l" x1="500" y1="493.4362" x2="500" y2="519.9101"/>
<line class="bone" data-bone="clavicle_r" x1="500" y1="398.1303" x2="500" y2="355.772"/>
<line class="bone" data-bone="upper_arm_r" x1="500" y1="355.772" x2="500" y2="429.8989"/>
<line class="bone" data-bone="forearm_r" x1="500" y1="429.8989" x2="500" y2="493.4362"/>
<line class="bone" data-bone="hand_link_r" x1="500" y1="493.4362" x2="500" y2="519.9101"/>
<line class="bone" data-bone="thigh_l" x1="500" y1="572.8579" x2="500" y2="646.9848"/>
<line class="bone" data-bone="shin_l" x1="500" y1="646.9848" x2="500" y2="707.8747"/>
<line class="bone" data-bone="thigh_r" x1="500" y1="572.8579" x2="500" y2="646.9848"/>
<line class="bone" data-bone="shin_r" x1="500" y1="646.9848" x2="500" y2="707.8747"/>
<circle class="node" data-node="root" cx="500" cy="721.1117" r="5"/>
<circle class="node" data-node="pelvis" cx="500" cy="562.2683" r="5"/>
<circle class="node" data-node="waist" cx="500" cy="509.3206" r="5"/>
<circle class="node" data-node="chest" cx="500" cy="398.1303" r="5"/>
<circle class="node" data-node="neck" cx="500" cy="302.8243" r="5"/>
<circle class="node" data-node="head_center" cx="500" cy="244.5817" r="5"/>
<circle class="node" data-node="shoulder_l" cx="500" cy="355.772" r="5"/>
<circle class="node" data-node="elbow_l" cx="500" cy="429.8989" r="5"/>
<circle class="node" data-node="wrist_l" cx="500" cy="493.4362" r="5"/>
<circle class="node" data-node="hand_l" cx="500" cy="519.9101" r="5"/>
<circle class="node" data-node="shoulder_r" cx="500" cy="355.772" r="5"/>
<circle class="node" data-node="elbow_r" cx="500" cy="429.8989" r="5"/>
<circle class="node" data-node="wrist_r" cx="500" cy="493.4362" r="5"/>
<circle class="node" data-node="hand_r" cx="500" cy="519.9101" r="5"/>
<circle class="node" data-node="hip_l" cx="500" cy="572.8579" r="5"/>
<circle class="node" data-node="knee_l" cx="500" cy="646.9848" r="5"/>
<circle class="node" data-node="ankle_l" cx="500" cy="707.8747" r="5"/>
<circle class="node" data-node="hip_r" cx="500" cy="572.8579" r="5"/>
<circle class="node" data-node="knee_r" cx="500" cy="646.9848" r="5"/>
<circle class="node" data-node="ankle_r" cx="500" cy="707.8747" r="5"/>
<text class="meta" x="20" y="28">view=side axes=y/z architecture=brickmen_giant_v0</text>
<text class="meta" x="20" y="50">blue=visual envelope; red=mechanical reference/keep-out; yellow=conservative sweep</text>
</svg>
